<svg xmlns="http://www.w3.org/2000/svg" viewBox="0 0 16 16">
  <!-- Same canonical path geometry as metaflow.svg, tuned for a slimmer/taller 16px activity bar silhouette -->
  <g transform="translate(1.62 2.75) scale(0.0205 0.0288) translate(-78.5 -189)">
    <path fill="currentColor" d="M 134 190 H 362 Q 390 190 402 214 L 388 270 Q 382 294 354 294 H 134 Q 82 294 82 242 Q 82 190 134 190 Z"/>
    <path fill="currentColor" d="M 134 321 H 460 Q 490 321 502 345 L 488 401 Q 482 425 454 425 H 134 Q 82 425 82 373 Q 82 321 134 321 Z"/>
    <path fill="currentColor" d="M 134 450 H 360 Q 392 450 406 476 L 392 530 Q 384 554 352 554 H 134 Q 82 554 82 502 Q 82 450 134 450 Z"/>
    <path fill="currentColor" d="m 562.14308,554.35353 c 6.08883,-2.81484 8.02526,-4.98479 39.5804,-44.35353 14.76815,-18.425 33.37756,-41.6 41.35424,-51.5 38.81547,-48.17455 54.95524,-68.50513 56.84579,-71.6062 2.32782,-3.81832 2.79983,-11.66509 0.91491,-15.20954 -1.35306,-2.54431 -25.86083,-33.84653 -64.80604,-82.77266 C 620.88957,269.88798 598.44336,241.65835 586.15191,226.17907 573.86046,210.6998 562.19319,196.62078 560.22464,194.89237 553.35612,188.86173 554.8173,189 497.9552,189 h -52.10905 l -2.92307,2.92308 c -4.8592,4.85919 -3.85184,8.30199 6.23021,21.29268 3.1093,4.00633 19.0843,24.68747 35.5,45.95809 16.41569,21.27062 43.03529,55.56951 59.15467,76.21976 31.34729,40.15844 32.29561,41.72549 28.64661,47.33702 -0.99045,1.52315 -11.93963,15.36937 -24.33152,30.76937 -45.32109,56.32275 -99.55239,124.35703 -102.40766,128.47251 -2.69841,3.8894 -2.20773,8.689 1.24089,12.13762 l 2.95628,2.95628 53.79372,-0.28321 c 52.60287,-0.27693 53.89651,-0.33072 58.4368,-2.42967 z"/>
  </g>
</svg>

