<svg xmlns="http://www.w3.org/2000/svg" viewBox="0 0 16 16">
  <!-- Same canonical path geometry as metaflow.svg, tuned for a slimmer/taller 16px activity bar silhouette -->
  <g transform="translate(1.62 2.75) scale(0.0205 0.0288) translate(-78.5 -189)">
    <path fill="currentColor" d="m 426.65485,293.50986 c 11.79807,-3.50365 18.60643,-12.63169 18.53047,-24.84401 -0.0211,-3.39122 -0.52551,-7.4434 -1.12092,-9.00484 -0.59541,-1.56144 -7.2436,-11.01144 -14.77375,-21 -28.31217,-37.55539 -32.29979,-41.89175 -42.2113,-45.90301 L 381.5,190.5 l -131,-0.26678 c -91.0049,-0.18533 -132.59354,0.0634 -136.21948,0.81456 -16.915544,3.50446 -31.306175,17.43536 -35.788852,34.64552 -2.04485,7.85071 -1.987393,27.25396 0.101791,34.3752 4.90199,16.70903 19.851697,30.58375 36.462981,33.84104 2.44396,0.47923 72.42438,0.92063 155.51206,0.98089 131.14805,0.0951 151.73017,-0.0869 156.08635,-1.38057 z"/>
    <path fill="currentColor" d="m 476.07213,423.26476 c 11.53034,-3.92158 21.4615,-11.54538 27.27241,-20.93605 3.08248,-4.98141 6.84978,-15.73938 6.55164,-18.70894 -0.11706,-1.16587 0.12388,-3.75599 0.53541,-5.75582 1.30124,-6.32337 -1.04348,-20.61311 -4.55416,-27.75495 -4.03644,-8.21142 -14.41679,-18.82376 -22.00839,-22.50024 -13.47225,-6.52438 1.29931,-6.03205 -190.6509,-6.35436 -157.24923,-0.26405 -174.88955,-0.13599 -180.5,1.31028 -13.616194,3.51002 -23.915674,11.9703 -30.292908,24.88346 L 78.5,355.39627 V 372.44814 389.5 l 3.626767,7.5 c 4.489762,9.28464 9.532205,15.17687 17.265365,20.17505 11.964998,7.73335 5.477298,7.25741 106.607868,7.82079 49.775,0.27729 129.425,0.50416 177,0.50416 h 86.5 z"/>
    <path fill="currentColor" d="m 378,553.93996 c 8.17606,-1.31437 15.56665,-4.65022 20.82245,-9.39852 2.24533,-2.02852 8.88753,-9.97094 14.76043,-17.64981 5.87291,-7.67887 14.45148,-18.55835 19.06349,-24.17661 C 441.81125,491.55054 445,484.93569 445,477.08821 c 0,-10.64736 -4.98021,-18.47615 -14.84208,-23.33143 L 423.54287,450.5 272.25845,450.23117 c -165.94797,-0.29489 -157.7042,-0.56853 -170.00986,5.64334 -8.227207,4.15308 -15.413527,11.65691 -19.945503,20.82674 L 78.5,484.39627 V 501.44814 518.5 l 3.670214,7.68579 c 5.760213,12.06244 14.142232,19.85563 27.048566,25.14842 L 114.5,553.5 l 127,0.51307 c 69.85,0.28219 127.675,0.61629 128.5,0.74245 0.825,0.12615 4.425,-0.24085 8,-0.81556 z"/>
    <path fill="currentColor" d="m 562.14308,554.35353 c 6.08883,-2.81484 8.02526,-4.98479 39.5804,-44.35353 14.76815,-18.425 33.37756,-41.6 41.35424,-51.5 38.81547,-48.17455 54.95524,-68.50513 56.84579,-71.6062 2.32782,-3.81832 2.79983,-11.66509 0.91491,-15.20954 -1.35306,-2.54431 -25.86083,-33.84653 -64.80604,-82.77266 C 620.88957,269.88798 598.44336,241.65835 586.15191,226.17907 573.86046,210.6998 562.19319,196.62078 560.22464,194.89237 553.35612,188.86173 554.8173,189 497.9552,189 h -52.10905 l -2.92307,2.92308 c -4.8592,4.85919 -3.85184,8.30199 6.23021,21.29268 3.1093,4.00633 19.0843,24.68747 35.5,45.95809 16.41569,21.27062 43.03529,55.56951 59.15467,76.21976 31.34729,40.15844 32.29561,41.72549 28.64661,47.33702 -0.99045,1.52315 -11.93963,15.36937 -24.33152,30.76937 -45.32109,56.32275 -99.55239,124.35703 -102.40766,128.47251 -2.69841,3.8894 -2.20773,8.689 1.24089,12.13762 l 2.95628,2.95628 53.79372,-0.28321 c 52.60287,-0.27693 53.89651,-0.33072 58.4368,-2.42967 z"/>
  </g>
</svg>
