<svg xmlns="http://www.w3.org/2000/svg" width="24" height="24" viewBox="0 0 24 24">
  <g transform="translate(3 4.18) scale(0.107142857) translate(-55 -55)" fill="currentColor">
    <path d="M55 55H101Q106 55 109.5 58.5L121.5 74Q126 80 126 86Q126 91 121.5 94.5Q117 98 108 98H55A21.5 21.5 0 0 1 55 55Z"/>
    <path d="M55 107H128A21 21 0 0 1 128 149H55A21 21 0 0 1 55 107Z"/>
    <path d="M55 158H108Q117 158 121.5 161.5Q126 165 126 170Q126 176 121.5 182L109.5 197.5Q106 201 101 201H55A21.5 21.5 0 0 1 55 158Z"/>
    <path d="M128 55H161Q166 55 169 58.5L217.5 119.5Q223 126.5 223 129.5Q223 132.5 217.5 139.5L169 196.5Q166 200 161 200H128Q123 200 123.8 194.8L128.5 184Q130.5 179.5 134 175.5L166 135Q170 131 170 129.5Q170 128 166 123L134 82Q130.5 77.5 128.5 73L123.8 60.2Q123 55 128 55Z"/>
  </g>
</svg>
